# AST/ASF file generated using VICON BodyLanguage
# -----------------------------------------------
:version 1.10
:name VICON
:units
  mass 1.0
  length 0.45
  angle deg
:documentation
   .ast/.asf automatically generated from VICON data using
   VICON BodyBuilder and BodyLanguage model FoxedUp or BRILLIANT.MOD
:root
   order TX TY TZ RX RY RZ
   axis XYZ
   position 0 0 0  
   orientation 0 0 0 
:bonedata
  begin
     id 1 
     name lhipjoint
     direction 0.611804 -0.747784 0.257906 
     length 2.29243 
     axis 0 0 0  XYZ
  end
  begin
     id 2 
     name lfemur
     direction 0.34202 -0.939693 0  
     length 7.31159  
     axis 0 0 20  XYZ
    dof rx ry rz
    limits (-160.0 20.0)
           (-70.0 70.0)
           (-60.0 70.0)
  end
  begin
     id 3 
     name ltibia
     direction 0.34202 -0.939693 0   
     length 7.33391   
     axis 0 0 20   XYZ
    dof rx
    limits (-10.0 170.0)
  end
  begin
     id 4 
     name lfoot
     direction 0.122263 -0.335914 0.933924   
     length 1.76083   
     axis -90 7.62852e-016 20   XYZ
    dof rx rz
    limits (-45.0 90.0)
           (-70.0 20.0)
  end
  begin
     id 5 
     name ltoes
     direction 1.53533e-011 -4.2177e-011 1   
     length 0.879206   
     axis -90 7.62852e-016 20   XYZ
    dof rx
    limits (-90.0 20.0)
  end
  begin
     id 6 
     name rhipjoint
     direction -0.646469 -0.721248 0.248754   
     length 2.37677  
     axis 0 0 0  XYZ 
  end
  begin
     id 7 
     name rfemur
     direction -0.34202 -0.939693 0   
     length 7.18623   
     axis 0 0 -20   XYZ
    dof rx ry rz
    limits (-160.0 20.0)
           (-70.0 70.0)
           (-70.0 60.0)
  end
  begin
     id 8 
     name rtibia
     direction -0.34202 -0.939693 0   
     length 7.36567   
     axis 0 0 -20   XYZ
    dof rx
    limits (-10.0 170.0)
 end
 begin
     id 9 
     name rfoot
     direction -0.126681 -0.348054 0.928876   
     length 1.71902  
     axis -90 -7.62852e-016 -20   XYZ
    dof rx rz
    limits (-45.0 90.0)
           (-20.0 70.0)
  end
  begin
     id 10 
     name rtoes
     direction -1.53551e-011 -4.21898e-011 1   
     length 0.857792   
     axis -90 -7.62852e-016 -20   XYZ
    dof rx
    limits (-90.0 20.0)
  end
  begin
     id 11 
     name lowerback
     direction 0.0106509 0.999778 0.0181844   
     length 2.07668   
     axis 0 0 0   XYZ
    dof rx ry rz
    limits (-20.0 45.0)
           (-30.0 30.0)
           (-30.0 30.0)
  end
  begin
     id 12 
     name upperback
     direction -0.00456018 0.999989 -0.000590935   
     length 2.08011   
     axis 0 0 0   XYZ
    dof rx ry rz
    limits (-20.0 45.0)
           (-30.0 30.0)
           (-30.0 30.0)
  end
  begin
     id 13 
     name thorax
     direction -0.00910382 0.999916 -0.00923765   
     length 2.07397   
     axis 0 0 0   XYZ
    dof rx ry rz
    limits (-20.0 45.0)
           (-30.0 30.0)
           (-30.0 30.0)
  end
  begin
     id 14 
     name lowerneck
     direction 0.00171967 0.99778 0.0665733   
     length 1.67556   
     axis 0 0 0   XYZ
    dof rx ry rz
    limits (-20.0 45.0)
           (-30.0 30.0)
           (-30.0 30.0)
  end
  begin
     id 15 
     name upperneck
     direction -0.0143166 0.991302 -0.130828   
     length 1.68462   
     axis 0 0 0   XYZ
    dof rx ry rz
    limits (-20.0 45.0)
           (-30.0 30.0)
           (-30.0 30.0)
  end
  begin
     id 16
     name head
     direction -0.00606378 0.998665 -0.0512995  
     length 1.69269  
     axis 0 0 0   XYZ
    dof rx ry rz
    limits (-20.0 45.0)
           (-30.0 30.0)
           (-30.0 30.0)
  end
  begin
     id 17 
     name lclavicle
     direction 0.9638 0.179341 0.197297  
     length 4.12888  
     axis 0 0 0   XYZ
    dof ry rz
    limits (-20.0 10.0)
           (0.0 20.0)
  end
  begin
     id 18 
     name lhumerus
     direction 1 -4.48972e-011 -2.47351e-027   
     length 5.01834   
     axis -180 -30 -90   XYZ
    dof rx ry rz
    limits (-60.0 90.0)
           (-90.0 90.0)
           (-90.0 90.0)
  end
  begin
     id 19
     name lradius
     direction 1 -4.48965e-011 1.51591e-026   
     length 3.4869   
     axis -180 -30 -90   XYZ
    dof rx
    limits (-10.0 170.0)
  end
  begin
     id 20
     name lwrist
     direction 1 -4.48957e-011 2.70032e-026   
     length 1.74345   
     axis -1.81515e-014 90 90   XYZ
    dof ry
    limits (-180.0 0.0)
 end
  begin
     id 21 
     name lhand
     direction 1 -4.48951e-011 5.40064e-026   
     length 0.76799   
     axis -3.44607e-014 90 90   XYZ
    dof rx rz
    limits (-90.0 90.0)
           (-45.0 45.0)
  end
  begin
     id 22 
     name lfingers
     direction 1 -4.48971e-011 1.08013e-025   
     length 0.619174   
     axis -6.89214e-014 90 90   XYZ
    dof rx
    limits (0.0 90.0)
  end
  begin
     id 23
     name lthumb
     direction 0.707107 -6.34931e-011 0.707107   
     length 0.889013   
     axis -90 45 2.85299e-015   XYZ
    dof rx rz
    limits (-45.0 45.0)
           (-45.0 45.0)
  end
  begin
     id 24 
     name rclavicle
     direction -0.961409 0.252588 0.109054   
     length 4.04305  
     axis 0 0 0   XYZ 
    dof ry rz
    limits (-10.0 20.0)
           (-20.0 0.0)
  end
  begin
     id 25 
     name rhumerus
     direction -1 -4.4897e-011 1.33872e-017  
     length 4.70164   
     axis -180 30 90   XYZ
    dof rx ry rz
    limits (-90.0 60.0)
           (-90.0 90.0)
           (-90.0 90.0)
  end
  begin
     id 26 
     name rradius
     direction -1 -4.48954e-011 1.83844e-026   
     length 3.49911   
     axis -180 30 90   XYZ
    dof rx
    limits (-10.0 170.0)
  end
  begin
     id 27 
     name rwrist
     direction -1 -4.49008e-011 2.70032e-026   
     length 1.74955   
     axis -1.81515e-014 -90 -90   XYZ
    dof ry
    limits (-180.0 0.0)
  end
  begin
     id 28
     name rhand
     direction -1 -4.48916e-011 5.40064e-026   
     length 0.739335   
     axis -3.44607e-014 -90 -90   XYZ
    dof rx rz
    limits (-90.0 90.0)
           (-45.0 45.0)
  end
  begin
     id 29
     name rfingers
     direction -1 -4.48987e-011 1.08013e-025   
     length 0.596071   
     axis -6.89214e-014 -90 -90   XYZ
    dof rx
    limits (0.0 90.0)
  end
  begin
     id 30
     name rthumb
     direction -0.707107 -6.34935e-011 0.707107   
     length 0.855843   
     axis -90 -45 -2.85299e-015   XYZ
    dof rx rz
    limits (-45.0 45.0)
           (-45.0 45.0)
  end
:hierarchy
  begin
    root lhipjoint rhipjoint lowerback
    lhipjoint lfemur
    lfemur ltibia
    ltibia lfoot
    lfoot ltoes
    rhipjoint rfemur
    rfemur rtibia
    rtibia rfoot
    rfoot rtoes
    lowerback upperback
    upperback thorax
    thorax lowerneck lclavicle rclavicle
    lowerneck upperneck
    upperneck head
    lclavicle lhumerus
    lhumerus lradius
    lradius lwrist
    lwrist lhand lthumb
    lhand lfingers
    rclavicle rhumerus
    rhumerus rradius
    rradius rwrist
    rwrist rhand rthumb
    rhand rfingers
  end

#!OML:ASF I:\salsa\salsa 7_09\Patient 1\Session 1\dancermale.ASF
:FULLY-SPECIFIED
:DEGREES
911
root 4.38552 12.8468 -11.5099 187.599 164.736 178.804
lowerback 14.448 -0.631915 -4.1537
upperback -4.82184 -1.77881 -0.795071
thorax -13.4306 -0.518995 1.92264
lowerneck -11.6103 1.61678 2.1309
upperneck 4.38031 1.8679 -0.376563
head 3.51713 0.949741 -0.378919
rclavicle -1.89342e-014 0
rhumerus -46.584 33.8151 -119.098
rradius 121.32
rwrist 16.5701
rhand -60.3699 23.4008
rfingers 7.12502
rthumb -32.5039 -3.70279
lclavicle -1.89342e-014 0
lhumerus -27.6565 -19.0238 115.171
lradius 43.2468
lwrist 10.0693
lhand -9.67153 40.4264
lfingers 7.12502
lthumb 16.2999 1149.76
rfemur -45.897 -27.6926 -9.61085
rtibia 74.9569
rfoot -17.6888 -20.5076
rtoes -18.3224
lfemur -51.6365 37.1339 4.9115
ltibia 82.3908
lfoot 335.427 19.3354
ltoes -36.7418
912
root 4.60517 13.0248 -11.5624 187.661 165.252 178.403
lowerback 14.0403 -0.907635 -3.90957
upperback -4.86609 -2.06712 -0.672495
thorax -13.2162 -0.673109 1.9833
lowerneck -11.7871 1.11065 1.78061
upperneck 5.15885 1.18757 0.265411
head 3.80867 0.640383 -0.146708
rclavicle -2.88238e-015 -3.18055e-015
rhumerus -45.3603 32.07 -117.779
rradius 121.414
rwrist 15.3026
rhand -60.5924 21.0193
rfingers 7.12502
rthumb -32.7156 -6.04048
lclavicle -2.88238e-015 -3.18055e-015
lhumerus -28.9413 -23.5863 117.433
lradius 43.6164
lwrist 8.81898
lhand -6.6708 41.3908
lfingers 7.12502
lthumb 19.1874 1150.46
rfemur -44.2522 -26.3768 -10.0049
rtibia 71.3891
rfoot -16.4696 -20.1593
rtoes -14.2857
lfemur -51.0838 36.7423 4.22192
ltibia 81.932
lfoot 334.818 19.5574
ltoes -35.5473
913
root 4.82052 13.2002 -11.612 187.787 165.833 178.082
lowerback 13.5151 -1.13596 -3.78521
upperback -4.87412 -2.30726 -0.527161
thorax -12.8877 -0.797622 2.11643
lowerneck -11.5964 0.560125 1.72422
upperneck 5.44351 0.454816 0.361071
head 3.8652 0.283203 -0.156022
rclavicle 2.48481e-014 1.59028e-015
rhumerus -44.2114 30.4703 -116.443
rradius 121.579
rwrist 13.6418
rhand -60.3286 18.253
rfingers 7.12502
rthumb -32.4646 -8.85869
lclavicle 2.48481e-014 1.59028e-015
lhumerus -30.3441 -27.842 119.623
lradius 44.6827
lwrist 9.26165
lhand -3.61152 41.9464
lfingers 7.12502
lthumb 22.127 1150.7
rfemur -42.6759 -24.8682 -10.4356
rtibia 67.8054
rfoot -15.2298 -19.934
rtoes -10.0071
lfemur -50.5071 36.4486 3.48695
ltibia 81.3976
lfoot 334.299 19.8885
ltoes -34.5607
914
root 5.03658 13.3725 -11.6609 187.947 166.391 177.831
lowerback 12.9567 -1.3427 -3.64355
upperback -4.86598 -2.52316 -0.447908
thorax -12.5262 -0.917422 2.15497
lowerneck -11.4468 0.107296 1.63471
upperneck 5.93741 -0.144265 0.432642
head 4.00688 -0.00806332 -0.158041
rclavicle 2.28602e-015 -3.97569e-015
rhumerus -42.7285 28.9934 -114.832
rradius 121.77
rwrist 12.4537
rhand -59.3173 13.1717
rfingers 7.12502
rthumb -31.5017 -14.1329
lclavicle 2.28602e-015 -3.97569e-015
lhumerus -32.0252 -31.828 121.801
lradius 46.1076
lwrist 10.0826
lhand -2.1226 42.2685
lfingers 7.12502
lthumb 23.5558 1150.85
rfemur -41.1289 -23.3534 -10.9174
rtibia 64.2265
rfoot -13.7348 -19.9969
rtoes -6.27624
lfemur -50.008 36.0798 2.66797
ltibia 80.8253
lfoot 333.876 20.0744
ltoes -33.5029
915
root 5.24627 13.5447 -11.7092 187.935 167.17 177.608
lowerback 12.5925 -1.36639 -3.65256
upperback -4.75458 -2.5275 -0.374589
thorax -12.1733 -0.926559 2.22576
lowerneck -11.4993 -0.43191 1.40521
upperneck 6.59264 -0.864955 0.72382
head 4.25022 -0.349465 -0.0714108
rclavicle -3.13086e-015 -2.38542e-015
rhumerus -40.9604 27.441 -112.9
rradius 121.905
rwrist 11.7452
rhand -58.177 8.39274
rfingers 7.12502
rthumb -30.4147 -19.1186
lclavicle -3.13086e-015 -2.38542e-015
lhumerus -33.9535 -34.8943 123.696
lradius 48.489
lwrist 12.136
lhand -1.30226 43.6731
lfingers 7.12502
lthumb 24.3425 1152.15
rfemur -39.5755 -21.6182 -11.3934
rtibia 60.63
rfoot -12.0205 -20.0973
rtoes -3.93554
lfemur -49.0435 35.7624 2.04014
ltibia 80.0188
lfoot 333.502 20.2515
ltoes -32.7359
916
root 5.45194 13.7143 -11.7561 187.915 167.82 177.389
lowerback 12.2939 -1.34643 -3.69793
upperback -4.63239 -2.47807 -0.262351
thorax -11.8495 -0.905028 2.34946
lowerneck -11.4463 -1.08449 0.982211
upperneck 7.09746 -1.72425 1.19097
head 4.42793 -0.755978 0.0987999
rclavicle -5.81445e-015 8.74653e-015
rhumerus -39.3249 25.9577 -110.817
rradius 122.001
rwrist 10.8678
rhand -57.1525 5.13275
rfingers 7.12502
rthumb -29.4371 -22.555
lclavicle -5.81445e-015 8.74653e-015
lhumerus -35.7508 -37.5172 125.614
lradius 50.4979
lwrist 13.6399
lhand -1.12599 44.5547
lfingers 7.12502
lthumb 24.5114 1153.01
rfemur -37.8655 -19.8392 -11.9021
rtibia 56.864
rfoot -10.3355 -20.3642
rtoes -2.34007
lfemur -48.1533 35.299 1.3822
ltibia 79.1367
lfoot 333.125 20.3674
ltoes -31.8194
917
root 5.65187 13.8783 -11.8042 188.067 168.152 177.058
lowerback 11.827 -1.4073 -3.65473
upperback -4.55114 -2.50501 -0.0425449
thorax -11.4654 -0.923359 2.55081
lowerneck -11.2564 -1.80106 0.660663
upperneck 7.43749 -2.66128 1.42372
head 4.52295 -1.2123 0.166251
rclavicle -1.68967e-015 2.38542e-014
rhumerus -37.669 24.5213 -108.503
rradius 122.189
rwrist 9.35393
rhand -55.8655 2.33743
rfingers 7.12502
rthumb -28.2077 -25.5598
lclavicle -1.68967e-015 2.38542e-014
lhumerus -37.2754 -39.6066 127.293
lradius 52.2766
lwrist 14.8071
lhand -1.36896 44.6048
lfingers 7.12502
lthumb 24.2785 1153.09
rfemur -36.0711 -17.9491 -12.2317
rtibia 52.876
rfoot -8.78296 -21.1728
rtoes -0.735566
lfemur -47.7597 34.7064 0.673027
ltibia 78.3382
lfoot 332.832 20.6045
ltoes -30.5917
918
root 5.85371 14.0401 -11.8488 188.201 168.322 176.657
lowerback 11.3227 -1.51056 -3.45213
upperback -4.45656 -2.55836 0.229078
thorax -11.0472 -0.965258 2.72001
lowerneck -11.0054 -2.54397 0.281493
upperneck 8.11374 -3.6265 1.62332
head 4.24694 -1.68215 0.206765
rclavicle 8.24956e-015 -2.38542e-015
rhumerus -35.6953 22.8784 -105.924
rradius 122.454
rwrist 7.10932
rhand -53.5938 -0.0471975
rfingers 7.12502
rthumb -26.0345 -28.2834
lclavicle 8.24956e-015 -2.38542e-015
lhumerus -38.6121 -41.1927 128.665
lradius 54.0378
lwrist 15.9631
lhand -1.30551 43.4966
lfingers 7.12502
lthumb 24.3393 1151.97
rfemur -34.102 -15.9745 -12.4488
rtibia 48.713
rfoot -7.02711 -22.4714
rtoes -0.400204
lfemur -47.4175 33.941 0.0228584
ltibia 77.4893
lfoot 332.647 21.0045
ltoes -29.5002
